<svg xmlns="http://www.w3.org/2000/svg" width="44" height="42"><path fill-rule="evenodd" fill="#FFF" d="M41 42h-2c-1.654 0-3-1.346-3-3V3c0-1.654 1.346-3 3-3h2c1.654 0 3 1.346 3 3v36c0 1.654-1.346 3-3 3zm1-39c0-.551-.448-1-1-1h-2c-.552 0-1 .449-1 1v36c0 .551.448 1 1 1h2c.552 0 1-.449 1-1V3zM29 42h-2c-1.654 0-3-1.346-3-3V18c0-1.654 1.346-3 3-3h2c1.654 0 3 1.346 3 3v21c0 1.654-1.346 3-3 3zm1-24a1 1 0 0 0-1-1h-2a1 1 0 0 0-1 1v21c0 .551.448 1 1 1h2c.552 0 1-.449 1-1V18zM17 42h-2c-1.654 0-3-1.346-3-3V13c0-1.655 1.346-3 3-3h2c1.654 0 3 1.345 3 3v26c0 1.654-1.346 3-3 3zm1-29c0-.551-.448-1.001-1-1.001h-2c-.552 0-1 .45-1 1.001v26c0 .551.448 1 1 1h2c.552 0 1-.449 1-1V13zM5 42H3c-1.654 0-3-1.346-3-3V23c0-1.654 1.346-3 3-3h2c1.654 0 3 1.346 3 3v16c0 1.654-1.346 3-3 3zm1-19a1 1 0 0 0-1-1H3a1 1 0 0 0-1 1v16c0 .551.448 1 1 1h2c.552 0 1-.449 1-1V23z"/></svg>