<svg xmlns="http://www.w3.org/2000/svg" viewBox="0 0 299.85205 299.55649" height="299.556" width="299.852"><path d="M86.661 277.424c1.245-1.375 2.544-2.5 2.888-2.5.344 0-.393 1.125-1.638 2.5-1.244 1.375-2.543 2.5-2.887 2.5-.344 0 .393-1.125 1.637-2.5zm124.882-.312l-2.382-2.813 2.813 2.382c2.643 2.237 3.381 3.243 2.381 3.243-.237 0-1.503-1.265-2.812-2.812zM10.877 243.987c-1.555-1.983-1.51-2.027.472-.472 1.203.944 2.187 1.928 2.187 2.187 0 1.03-1.026.367-2.66-1.715zm2.66-208.285c0-.26.984-1.243 2.187-2.187 1.982-1.555 2.027-1.51.472.472-1.633 2.082-2.66 2.744-2.66 1.715z" fill="#d4d4d4"/><path d="M83.3 299.094c-6.559-1.78-.981-17.592 8.497-24.087 5.046-3.458 11.409-5.014 20.663-5.053l7.048-.03.82-4.375c.716-3.809 1.292-4.375 4.458-4.375 3.167 0 3.743.566 4.458 4.375l.82 4.375 11.424.018c15.012.022 17.048.617 17.048 4.982 0 2.53-.755 3.661-2.812 4.213-1.547.414-14.746.761-29.332.77l-26.519.017-4.418 3.88c-2.43 2.134-4.419 4.384-4.419 5 0 .645 24.943 1.12 58.75 1.12s58.75-.475 58.75-1.12c0-.616-1.988-2.866-4.418-5-4.254-3.735-4.847-3.88-15.938-3.897-6.335-.01-12.77-.352-14.3-.762-3.269-.877-4.822-6.822-3.551-13.596.715-3.809 1.29-4.375 4.457-4.375 3.139 0 3.745.576 4.426 4.206l.789 4.205 10.284.642c5.656.353 11.948 1.502 13.981 2.553 4.65 2.405 10.21 7.917 12.55 12.443 1.963 3.797 2.678 11.66 1.195 13.145-.993.993-131.143 1.694-134.71.726zm-63.12-50.547c-8.433-2.44-16.556-14.677-19.186-28.905-.81-4.378-1.148-38.32-.929-93.028L.411 40.48l3.194-6.204c2.266-4.403 4.958-7.296 9.273-9.965l6.08-3.762 30.624-.412c16.843-.227 32.498-.06 34.789.37 3.558.667 4.165 1.298 4.165 4.328 0 2.623-.733 3.744-2.812 4.302-1.547.414-16.875.78-34.063.815-33.81.066-35.06.286-39.442 6.932-2.333 3.54-2.415 6.79-2.397 94.29.019 88.478.08 90.759 2.566 96.25 1.4 3.094 4.024 7.172 5.83 9.063l3.286 3.437h259.782l4.25-4.25 4.25-4.25v-193l-4.25-4.25-4.25-4.25-32.312-.017c-17.772-.009-33.578-.356-35.125-.77-3.976-1.066-3.976-7.36 0-8.425 5.007-1.342 59.291-.846 66.05.603 9.049 1.941 16.556 9.448 18.497 18.497 1.955 9.119 1.935 181.185-.022 190.363a23.756 23.756 0 0 1-18.337 18.337c-8.264 1.762-253.771 1.796-259.857.035zm128.044-19.973c-2.908-1.693-2.784-5.743.226-7.353 1.821-.975 2.894-.81 4.375.67 1.079 1.08 1.961 2.444 1.961 3.033 0 .91-3.486 5.076-4.151 4.962-.123-.02-1.208-.61-2.411-1.312zM23.352 209.096c-1.132-.305-2.39-1.791-2.795-3.301-.405-1.51-.712-36.214-.683-77.12.058-80.032.11-80.719 6.564-85.508 3.348-2.485 5.284-2.637 38.308-3.002l34.781-.384.442-14.837c.5-16.79 2.143-20.656 9.934-23.387 5.927-2.076 73.84-2.076 79.766 0 7.792 2.73 9.434 6.596 9.934 23.387l.442 14.837 34.782.384c33.035.365 34.959.516 38.308 3.004 6.684 4.965 6.736 5.689 6.367 88.086-.187 41.78-.81 76.43-1.382 77.003-1.05 1.05-250.938 1.872-254.768.838zm246.132-83.86l-.323-74.687H30.411l-.322 74.688-.322 74.687h240.039l-.322-74.687zM136.06 158.379c-4.1-2.153-6.234-6.634-6.256-13.141l-.019-5.313-41.562-.017c-22.86-.01-42.828-.356-44.375-.77-3.976-1.066-3.976-7.36 0-8.425 1.547-.414 21.461-.761 44.254-.77l41.442-.018.433-11.842c.378-10.331.797-12.205 3.28-14.687 2.616-2.614 3.962-2.846 16.528-2.846 12.567 0 13.913.232 16.528 2.846 2.484 2.482 2.903 4.356 3.28 14.687l.434 11.842 41.442.017c22.793.01 42.707.357 44.254.771 2.057.552 2.812 1.683 2.812 4.212 0 2.53-.755 3.661-2.812 4.213-1.547.414-21.446.76-44.22.77l-41.408.017-.576 6.95c-.891 10.741-3.17 12.342-18.203 12.78-8.192.237-13.167-.178-15.256-1.276zm23.725-28.454v-20h-20v40h20v-20zm-11.562 13.65c-2.908-1.693-2.784-5.743.226-7.353 1.821-.975 2.894-.81 4.375.67 1.079 1.08 1.961 2.444 1.961 3.033 0 .91-3.486 5.076-4.151 4.962-.123-.02-1.208-.61-2.411-1.312zm-28.23-112.332c.27-4.776.944-9.135 1.496-9.688 1.312-1.312 55.28-1.312 56.593 0 .552.553 1.225 4.912 1.495 9.688l.49 8.682h9.798l-.352-14.687-.353-14.688h-78.75l-.352 14.688-.352 14.687h9.797l.49-8.682zm49.792 3.682v-5h-40v10h40v-5z" fill="#d9d9d9"/></svg>