<svg xmlns="http://www.w3.org/2000/svg" width="50" height="50"><path fill-rule="evenodd" fill="#FFF" d="M39.585 49.948h-.001c-4.187 0-11.807-2.629-24.329-15.151C7.812 27.353 3.027 20.893 1.034 15.595c-2.156-5.728-.458-8.604.746-9.808l4.27-4.269A4.966 4.966 0 0 1 9.587.052c1.557 0 2.997.704 3.952 1.931l5.202 6.684a4.994 4.994 0 0 1-.022 6.177l-1.174 1.486a3.006 3.006 0 0 0 .233 3.989l11.955 11.955c1.05 1.05 2.82 1.155 3.989.233l1.486-1.174c1.749-1.382 4.418-1.392 6.177-.022l6.684 5.201a5.01 5.01 0 0 1 .465 7.49l-4.269 4.269c-.765.765-2.198 1.677-4.68 1.677zM9.587 2.052c-.801 0-1.555.313-2.123.88l-4.27 4.27c-1.49 1.49-1.593 4.221-.288 7.689 1.892 5.03 6.523 11.251 13.763 18.491 12.673 12.673 19.797 14.566 22.915 14.566h.001c1.797 0 2.768-.593 3.266-1.09l4.269-4.27a3.013 3.013 0 0 0 .874-2.312 3.013 3.013 0 0 0-1.154-2.186l-6.683-5.201c-1.065-.829-2.652-.823-3.709.013l-1.487 1.174a5.025 5.025 0 0 1-3.102 1.078 4.97 4.97 0 0 1-3.54-1.466L16.364 21.733a5.004 5.004 0 0 1-.388-6.643l1.173-1.486a2.998 2.998 0 0 0 .014-3.709l-5.202-6.684a2.992 2.992 0 0 0-2.374-1.159z"/></svg>