<svg xmlns="http://www.w3.org/2000/svg" width="56" height="40"><path fill-rule="evenodd" fill="#fff" d="M53 40H3c-1.654 0-3-1.346-3-3V3c0-1.654 1.346-3 3-3h50c1.654 0 3 1.346 3 3v34c0 1.654-1.346 3-3 3zm1-37c0-.551-.449-1-1-1H3c-.551 0-1 .449-1 1v34c0 .551.449 1 1 1h50c.551 0 1-.449 1-1V3zm-9 31a4.954 4.954 0 0 1-3-1.018A4.956 4.956 0 0 1 39 34c-2.757 0-5-2.243-5-5s2.243-5 5-5c1.086 0 2.138.363 3 1.018A4.96 4.96 0 0 1 45 24c2.757 0 5 2.243 5 5s-2.243 5-5 5zm0-8c-.864 0-1.662.368-2.248 1.038-.379.434-1.126.434-1.504 0A2.955 2.955 0 0 0 39 26c-1.654 0-3 1.346-3 3s1.346 3 3 3c.864 0 1.662-.369 2.248-1.037a.995.995 0 0 1 1.504 0A2.961 2.961 0 0 0 45 32c1.654 0 3-1.346 3-3s-1.346-3-3-3zm3-6a1 1 0 0 1-1-1v-1a1 1 0 0 1 2 0v1a1 1 0 0 1-1 1zm-4 0a1 1 0 0 1-1-1v-1a1 1 0 0 1 2 0v1a1 1 0 0 1-1 1zm-4 0a1 1 0 0 1-1-1v-1a1 1 0 0 1 2 0v1a1 1 0 0 1-1 1zm-4 0a1 1 0 0 1-1-1v-1a1 1 0 0 1 2 0v1a1 1 0 0 1-1 1zm-4 0a1 1 0 0 1-1-1v-1a1 1 0 0 1 2 0v1a1 1 0 0 1-1 1zm-3 14H7a1 1 0 0 1 0-2h22a1 1 0 0 1 0 2zm-1-14a1 1 0 0 1-1-1v-1a1 1 0 0 1 2 0v1a1 1 0 0 1-1 1zm-4 0a1 1 0 0 1-1-1v-1a1 1 0 0 1 2 0v1a1 1 0 0 1-1 1zm-4 0a1 1 0 0 1-1-1v-1a1 1 0 0 1 2 0v1a1 1 0 0 1-1 1zm4 9a1 1 0 0 1-1 1h-6a1 1 0 0 1 0-2h6a1 1 0 0 1 1 1zm-8-9a1 1 0 0 1-1-1v-1a1 1 0 0 1 2 0v1a1 1 0 0 1-1 1zm-3 10H7a1 1 0 0 1 0-2h6a1 1 0 1 1 0 2zm0-12v1a1 1 0 0 1-2 0v-1a1 1 0 0 1 2 0zm-4 0v1a1 1 0 0 1-2 0v-1a1 1 0 0 1 2 0zm3-4H8c-1.103 0-2-.897-2-2V8c0-1.103.897-2 2-2h4c1.103 0 2 .897 2 2v4c0 1.103-.897 2-2 2zm0-6H8v4h4.001L12 8z"/></svg>