<svg xmlns="http://www.w3.org/2000/svg" width="60" height="60"><path fill-rule="evenodd" fill="#FFF" d="M59.009 30.701h-.011a1 1 0 0 1-1-.99 27.737 27.737 0 0 0-.084-1.918 1 1 0 0 1 .919-1.075.99.99 0 0 1 1.075.919c.053.677.084 1.368.091 2.053a1.001 1.001 0 0 1-.99 1.011zm-.302-4.959a1.002 1.002 0 0 1-1.164-.804 27.58 27.58 0 0 0-.409-1.874 1 1 0 0 1 1.939-.494c.168.663.316 1.338.438 2.009a1 1 0 0 1-.804 1.163zm-1.142-4.833a1 1 0 0 1-1.284-.592 29.08 29.08 0 0 0-.725-1.776 1 1 0 1 1 1.824-.819c.279.62.54 1.26.777 1.903a1 1 0 0 1-.592 1.284zm-1.954-4.566a1 1 0 0 1-1.367-.362 33.789 33.789 0 0 0-.496-.822 1 1 0 1 1 1.695-1.061c.181.29.358.582.53.879a1 1 0 0 1-.362 1.366zM51 14c-2.757 0-5-2.243-5-5s2.243-5 5-5 5 2.243 5 5-2.243 5-5 5zm0-8c-1.654 0-3 1.345-3 3 0 1.654 1.346 3 3 3s3-1.346 3-3c0-1.655-1.346-3-3-3zm-5.659.386a.988.988 0 0 1-.529-.153 30.734 30.734 0 0 0-.821-.493 1 1 0 1 1 1.001-1.731c.297.172.59.348.88.529a1 1 0 0 1-.531 1.848zm-3.596-1.908a.992.992 0 0 1-.405-.087c-.585-.258-1.184-.5-1.779-.716a1 1 0 1 1 .682-1.88c.638.232 1.28.49 1.908.768a1 1 0 0 1-.406 1.915zm-4.693-1.615c-.08 0-.161-.01-.243-.03a27.863 27.863 0 0 0-1.877-.4 1.001 1.001 0 0 1 .35-1.969c.67.119 1.346.263 2.01.428a1 1 0 0 1-.24 1.971zm-4.902-.785A29.247 29.247 0 0 0 30.157 2a1 1 0 0 1 .005-1.999h.005c.684.003 1.375.03 2.055.08a1 1 0 0 1-.072 1.997zm-4.87.053c-.631.059-1.27.143-1.901.248a1 1 0 0 1-.328-1.973A30.172 30.172 0 0 1 27.09.139a1.002 1.002 0 0 1 1.091.9 1.002 1.002 0 0 1-.901 1.092zm-4.711.866c-.61.167-1.226.359-1.831.571a1 1 0 0 1-.661-1.888 29.795 29.795 0 0 1 1.963-.612 1 1 0 0 1 .529 1.929zm-4.492 1.661c-.578.272-1.151.567-1.705.876a1 1 0 1 1-.975-1.746 30.788 30.788 0 0 1 1.826-.939 1 1 0 0 1 .854 1.809zM52 30c0 12.13-9.869 22-22 22S8 42.13 8 30C8 17.869 17.869 8 30 8s22 9.869 22 22zm-42 0c0 11.028 8.972 20 20 20s20-8.972 20-20-8.972-20-20-20-20 8.972-20 20zm2.403-21.78a.998.998 0 0 1-1.406-.15.999.999 0 0 1 .149-1.406 30.05 30.05 0 0 1 1.64-1.236 1 1 0 1 1 1.149 1.636c-.52.365-1.035.754-1.532 1.156zm-3.456 3.32a.998.998 0 0 1-1.411.092 1 1 0 0 1-.092-1.411c.447-.51.921-1.014 1.407-1.498a.999.999 0 1 1 1.41 1.418c-.454.452-.896.923-1.314 1.399zm-1.785 2.257A27.702 27.702 0 0 0 6.104 15.4a1.002 1.002 0 0 1-1.376.329 1 1 0 0 1-.33-1.374c.355-.58.737-1.158 1.133-1.716a1 1 0 0 1 1.631 1.158zm-2.433 4.13a28.719 28.719 0 0 0-.769 1.76 1 1 0 1 1-1.859-.738c.252-.636.53-1.271.824-1.885a1 1 0 1 1 1.804.863zm-1.69 4.486a27.95 27.95 0 0 0-.454 1.864 1 1 0 0 1-1.958-.407c.138-.667.302-1.34.487-1.998a1 1 0 1 1 1.925.541zm-.893 4.706a27.612 27.612 0 0 0-.129 1.914 1 1 0 0 1-.999.967l-.035-.001a1 1 0 0 1-.965-1.033c.022-.685.069-1.374.139-2.05a1 1 0 1 1 1.989.203zM.999 30.982a.991.991 0 0 1 1.065.931c.043.635.108 1.277.194 1.908a1 1 0 1 1-1.981.27 30.419 30.419 0 0 1-.208-2.044 1 1 0 0 1 .93-1.065zm.586 4.93a1.005 1.005 0 0 1 1.208.736c.15.616.325 1.237.518 1.846a1 1 0 0 1-1.906.606 30.351 30.351 0 0 1-.555-1.98 1 1 0 0 1 .735-1.208zm1.423 4.758a1 1 0 0 1 1.316.517c.254.581.531 1.163.826 1.728a1 1 0 0 1-1.774.925 29.922 29.922 0 0 1-.885-1.854.999.999 0 0 1 .517-1.316zm2.215 4.441a1.003 1.003 0 0 1 1.386.284c.35.532.724 1.059 1.11 1.565a1 1 0 0 1-1.591 1.212 29.96 29.96 0 0 1-1.189-1.675 1 1 0 0 1 .284-1.386zm4.355 4.045c.437.465.895.921 1.36 1.353a1 1 0 1 1-1.361 1.466 29.733 29.733 0 0 1-1.457-1.45 1 1 0 0 1 1.458-1.369zm3.566 3.204c.508.384 1.037.755 1.57 1.103a1 1 0 1 1-1.093 1.675 29.749 29.749 0 0 1-1.683-1.183.999.999 0 1 1 1.206-1.595zm4.058 2.55c.563.291 1.147.566 1.736.82a1 1 0 0 1-.791 1.837 29.61 29.61 0 0 1-1.861-.879 1 1 0 1 1 .916-1.778zm4.434 1.819c.606.19 1.228.361 1.849.509a1 1 0 0 1-.464 1.946 30.362 30.362 0 0 1-1.982-.545 1 1 0 0 1 .597-1.91zm4.678 1.031c.629.082 1.271.144 1.909.184a1 1 0 0 1-.061 1.998c-.021 0-.042 0-.063-.002a29.508 29.508 0 0 1-2.046-.198 1 1 0 0 1-.861-1.121 1.007 1.007 0 0 1 1.122-.861zm4.788.218a28.724 28.724 0 0 0 1.914-.138 1 1 0 1 1 .212 1.988c-.681.073-1.37.123-2.049.149l-.039.001a1 1 0 0 1-.038-2zm4.754-.592a27.22 27.22 0 0 0 1.862-.464 1.001 1.001 0 0 1 .551 1.923c-.653.186-1.324.354-1.996.497a1 1 0 0 1-.417-1.956zm4.583-1.397a27.967 27.967 0 0 0 1.752-.775 1 1 0 1 1 .872 1.8c-.612.296-1.244.576-1.877.831a1 1 0 0 1-.747-1.856zm4.272-2.161a27.45 27.45 0 0 0 1.595-1.064 1 1 0 1 1 1.167 1.624c-.553.398-1.127.782-1.709 1.141a1 1 0 0 1-1.053-1.701zm5.238-4.18a1 1 0 0 1 1.424 1.404c-.477.484-.978.961-1.491 1.414a.996.996 0 0 1-1.411-.085 1 1 0 0 1 .085-1.412c.478-.424.947-.867 1.393-1.321zm1.912-2.152c.399-.497.785-1.014 1.148-1.537a1 1 0 0 1 1.643 1.141 29.392 29.392 0 0 1-1.231 1.648.998.998 0 0 1-1.406.154 1 1 0 0 1-.154-1.406zm2.667-3.981c.309-.56.602-1.136.87-1.712a1 1 0 1 1 1.813.844 30.07 30.07 0 0 1-.932 1.834.998.998 0 0 1-1.358.392.999.999 0 0 1-.393-1.358zm1.948-4.38c.208-.601.397-1.217.562-1.833a1 1 0 1 1 1.932.52c-.178.66-.381 1.321-.603 1.965a1 1 0 1 1-1.891-.652zm1.996-3.5a.999.999 0 0 1-.829-1.145c.101-.63.182-1.269.239-1.903a1.01 1.01 0 0 1 1.087-.906 1 1 0 0 1 .905 1.087 30.436 30.436 0 0 1-.256 2.039 1 1 0 0 1-1.146.828z"/></svg>