<?xml version="1.0" encoding="utf-8"?>
<!-- Generator: Adobe Illustrator 17.1.0, SVG Export Plug-In . SVG Version: 6.00 Build 0)  -->
<!DOCTYPE svg PUBLIC "-//W3C//DTD SVG 1.1//EN" "http://www.w3.org/Graphics/SVG/1.1/DTD/svg11.dtd">
<svg version="1.1" id="Слой_1" xmlns="http://www.w3.org/2000/svg" xmlns:xlink="http://www.w3.org/1999/xlink" x="0px" y="0px"
	 width="205px" height="51px" viewBox="0 0 205 51" enable-background="new 0 0 205 51" xml:space="preserve">
<g>
	<g>
		<path fill="#FFFFFF" d="M52.5,43.1v2.7c0,1,0,1.8-0.1,2.7l0,0c0.3-0.7,0.7-1.3,1.2-2.1l2.1-3.3h0.8v6.4h-0.8v-2.7
			c0-1,0-1.8,0.1-2.6l0,0c-0.3,0.7-0.7,1.4-1.2,2.1l-2,3.2h-0.9v-6.4H52.5z"/>
		<path fill="#FFFFFF" d="M61.2,43.1v2.7h3.1v-2.7h0.8v6.4h-0.8v-3h-3.1v3h-0.8v-6.4H61.2z"/>
		<path fill="#FFFFFF" d="M71.1,42.9v0.6c1.3,0.1,2.7,0.9,2.7,2.9c0,2-1.3,2.8-2.7,2.8v0.6h-0.8v-0.6c-1.3-0.1-2.7-0.8-2.7-2.8
			c0-2.1,1.5-2.8,2.7-2.9v-0.6H71.1z M70.3,44c-0.8,0-1.8,0.6-1.8,2.3c0,1.5,0.9,2.2,1.8,2.3V44z M71.1,48.5
			c0.9-0.1,1.8-0.7,1.8-2.3c0-1.6-0.9-2.2-1.8-2.3V48.5z"/>
		<path fill="#FFFFFF" d="M82,46.2c0,2.2-1.3,3.4-3,3.4c-1.7,0-2.9-1.3-2.9-3.2c0-2,1.3-3.3,3-3.3C80.8,43,82,44.3,82,46.2z
			 M77,46.3c0,1.4,0.7,2.6,2,2.6c1.3,0,2-1.2,2-2.6c0-1.3-0.7-2.6-2-2.6C77.7,43.7,77,44.9,77,46.3z"/>
		<path fill="#FFFFFF" d="M84.7,43.2c0.4-0.1,0.9-0.1,1.6-0.1c0.8,0,1.4,0.2,1.8,0.5c0.3,0.3,0.6,0.8,0.6,1.3c0,0.6-0.2,1-0.5,1.4
			C87.7,46.7,87,47,86.2,47c-0.2,0-0.5,0-0.7-0.1v2.5h-0.8V43.2z M85.5,46.3c0.2,0,0.4,0.1,0.7,0.1c1,0,1.6-0.5,1.6-1.4
			c0-0.8-0.6-1.2-1.5-1.2c-0.4,0-0.6,0-0.8,0.1V46.3z"/>
		<path fill="#FFFFFF" d="M96.6,46.7c0-0.9-0.1-2-0.1-2.7h0c-0.2,0.7-0.5,1.5-0.8,2.4l-1.1,3.1h-0.6l-1-3c-0.3-0.9-0.6-1.7-0.7-2.5
			h0c0,0.8-0.1,1.9-0.1,2.8l-0.2,2.7h-0.8l0.4-6.4h1l1.1,3.1c0.3,0.8,0.5,1.5,0.6,2.1h0c0.2-0.6,0.4-1.3,0.7-2.1l1.1-3.1h1l0.4,6.4
			h-0.8L96.6,46.7z"/>
		<path fill="#FFFFFF" d="M101.7,47.5l-0.7,2h-0.8l2.2-6.4h1l2.2,6.4h-0.9l-0.7-2H101.7z M103.8,46.8l-0.6-1.8
			c-0.1-0.4-0.2-0.8-0.3-1.2h0c-0.1,0.4-0.2,0.8-0.3,1.2l-0.6,1.8H103.8z"/>
		<path fill="#FFFFFF" d="M108.9,43.1v5.7h2.9v-5.7h0.8v5.7l0.6,0l-0.1,2.2h-0.7l-0.1-1.5h-4.4v-6.4H108.9z"/>
		<path fill="#FFFFFF" d="M117.1,43.1v2.7c0,1,0,1.8-0.1,2.7l0,0c0.3-0.7,0.7-1.3,1.2-2.1l2.1-3.3h0.8v6.4h-0.8v-2.7
			c0-1,0-1.8,0.1-2.6l0,0c-0.3,0.7-0.7,1.4-1.2,2.1l-2,3.2h-0.9v-6.4H117.1z"/>
		<path fill="#FFFFFF" d="M129.5,46.2c0,2.2-1.3,3.4-3,3.4c-1.7,0-2.9-1.3-2.9-3.2c0-2,1.3-3.3,3-3.3
			C128.3,43,129.5,44.3,129.5,46.2z M124.5,46.3c0,1.4,0.7,2.6,2,2.6c1.3,0,2-1.2,2-2.6c0-1.3-0.7-2.6-2-2.6
			C125.2,43.7,124.5,44.9,124.5,46.3z"/>
		<path fill="#FFFFFF" d="M132.8,43.1v2.7h3.1v-2.7h0.8v6.4h-0.8v-3h-3.1v3H132v-6.4H132.8z"/>
		<path fill="#FFFFFF" d="M140.7,43.1v2.7h3.1v-2.7h0.8v6.4h-0.8v-3h-3.1v3h-0.8v-6.4H140.7z"/>
		<path fill="#FFFFFF" d="M148.7,43.1v2.4c0.2,0,0.5,0,0.8,0c1.3,0,2.5,0.6,2.5,2c0,0.6-0.2,1-0.5,1.3c-0.5,0.5-1.4,0.7-2.3,0.7
			c-0.6,0-1,0-1.3-0.1v-6.3H148.7z M148.7,48.8c0.2,0,0.4,0,0.7,0c0.9,0,1.7-0.5,1.7-1.4c0-1-0.8-1.4-1.7-1.4c-0.3,0-0.5,0-0.7,0
			V48.8z M153.5,43.1v6.4h-0.8v-6.4H153.5z"/>
		<path fill="#FFFFFF" d="M157.6,43.1v2.7c0,1,0,1.8-0.1,2.7l0,0c0.3-0.7,0.7-1.3,1.2-2.1l2.1-3.3h0.8v6.4h-0.8v-2.7
			c0-1,0-1.8,0.1-2.6l0,0c-0.3,0.7-0.7,1.4-1.2,2.1l-2,3.2h-0.9v-6.4H157.6z M158.6,41.8c0,0.3,0.1,0.6,0.6,0.6
			c0.4,0,0.5-0.3,0.6-0.6h0.6c0,0.6-0.4,1-1.2,1c-0.8,0-1.1-0.4-1.2-1H158.6z"/>
		<path fill="#FFFFFF" d="M173.2,43.1v5.7h2.9v-5.7h0.8v5.7l0.6,0l-0.1,2.2h-0.7l-0.1-1.5h-4.4v-6.4H173.2z"/>
		<path fill="#FFFFFF" d="M183.5,46.5H181v2.3h2.8v0.7h-3.6v-6.4h3.4v0.7H181v2h2.5V46.5z"/>
		<path fill="#FFFFFF" d="M187.2,43.1v2.7h3.1v-2.7h0.8v6.4h-0.8v-3h-3.1v3h-0.8v-6.4H187.2z"/>
		<path fill="#FFFFFF" d="M195.2,43.8h-1.9v-0.7h4.7v0.7H196v5.7h-0.8V43.8z"/>
		<path fill="#FFFFFF" d="M200.2,43.2c0.4-0.1,0.9-0.1,1.6-0.1c0.8,0,1.4,0.2,1.8,0.5c0.3,0.3,0.6,0.8,0.6,1.3c0,0.6-0.2,1-0.5,1.4
			c-0.4,0.5-1.1,0.7-1.9,0.7c-0.2,0-0.5,0-0.7-0.1v2.5h-0.8V43.2z M201,46.3c0.2,0,0.4,0.1,0.7,0.1c1,0,1.6-0.5,1.6-1.4
			c0-0.8-0.6-1.2-1.5-1.2c-0.4,0-0.6,0-0.8,0.1V46.3z"/>
	</g>
	<path fill-rule="evenodd" clip-rule="evenodd" fill="#FFFFFF" d="M51.6,0.8v35.3h11.1V25c0-1,0.2-1.5,0.6-1.9
		c0.4-0.6,0.8-0.8,1.3-0.8c0.8,0,1.1,0.2,1.5,0.8c0.6,0.4,0.8,1.1,0.8,2.1v10.9h11.1V24c0-2.7-0.6-4.6-1.5-5.9
		c-0.8-1.3-2.3-2.1-4.6-2.5l6.9-14.9H67.6l-5,13.4V0.8H51.6z"/>
	<path fill-rule="evenodd" clip-rule="evenodd" fill="#FFFFFF" d="M190.7,0c-5.2,0-9.5,1.7-13.2,5.3c-3.6,3.6-5.3,8-5.3,13.2
		c0,5,1.7,9.4,5.3,13c3.6,3.6,8,5.4,13.2,5.4c3.1,0,5.7-0.6,8.2-1.7c2.5-1.2,4.4-2.7,6.1-4.8l-7.8-7.8c-0.8,1.1-1.7,1.9-2.9,2.5
		c-1,0.8-2.3,1-3.6,1c-2.1,0-3.8-0.8-5.3-2.1c-1.3-1.5-2.1-3.2-2.1-5.3c0-2.1,0.8-3.8,2.1-5.4c1.5-1.5,3.3-2.3,5.3-2.3
		c1.2,0,2.3,0.2,3.4,0.8c1,0.4,1.9,1.1,2.7,2.1l7.8-7.6c-1.7-1.9-3.6-3.4-6.1-4.6C196,0.6,193.3,0,190.7,0z"/>
	<path fill-rule="evenodd" clip-rule="evenodd" fill="#FFFFFF" d="M95.5,0.2c4,0,7.3,1.3,9.7,4c2.5,2.7,3.8,6.3,3.8,11.1v20.8h-8.8
		v-9.2h-4.8v-8.2h4.8v-4.4c0-1.7-0.6-3-1.3-4c-1-1-1.9-1.5-3.4-1.5V0.2z M81.9,36.1V15.3c0-4.8,1.3-8.4,3.8-11.1
		c2.5-2.7,5.7-4,9.7-4v8.6c-3.2,0-4.8,1.9-4.8,5.9v4h4.8v8.2h-4.8v9.2H81.9z"/>
	<path fill-rule="evenodd" clip-rule="evenodd" fill="#FFFFFF" d="M128.2,0.2c3.6,0,6.7,1.1,8.8,3.6c2.3,2.5,3.4,5.9,3.4,10.1v17.7
		h2.9v4.4h-15.1v-4.4h7.6V14.1c0-6.3-2.7-9.5-7.6-9.5V0.2z M128.2,36.1h-15.3v-4.4h2.9V13.9c0-4.2,1.1-7.6,3.4-10.1
		c2.3-2.5,5.2-3.6,9-3.6v4.4c-2.5,0-4.4,1-5.7,2.5c-1.1,1.5-1.9,4-1.9,7.1v17.6h7.6V36.1z"/>
	<path fill-rule="evenodd" clip-rule="evenodd" fill="#FFFFFF" d="M144.5,0.8h2.1V25c0,3.4,1.3,6.1,3.6,7.8c1.9,1.3,4,2.1,6.5,2.1
		c2.9,0,5.2-1,7.1-2.5c2.1-1.9,3.1-4.2,3.1-7.4V0.8h2.3v35.3h-2.3v-4c-0.8,1.3-1.7,2.5-3.2,3.2c-1.9,1.1-4.2,1.5-6.9,1.5
		c-3.1,0-5.7-0.8-8-2.3c-2.9-1.9-4.2-4.8-4.2-8.4V0.8z"/>
	<path fill-rule="evenodd" clip-rule="evenodd" fill="#FFFFFF" d="M0,49.5V24.7l11.9,24.8H0z M25.5,12.5h11.9v24.6L25.5,12.5z
		 M37.4,37.8v11.7H12.6L37.4,37.8z M0,12.5h25L0,24.2V12.5z"/>
	<path fill-rule="evenodd" clip-rule="evenodd" fill="#FFFFFF" d="M6.4,37.7V12.9l11.9,24.8H6.4z M31.9,0.7h11.9v24.6L31.9,0.7z
		 M43.8,26v11.7H19L43.8,26z M6.4,0.7h25l-25,11.7V0.7z"/>
</g>
</svg>
