<svg width="26" height="26" viewBox="0 0 26 26" fill="none" xmlns="http://www.w3.org/2000/svg">
<path d="M13 2.16667C18.9735 2.16667 23.8333 7.0265 23.8333 13C23.8333 18.9735 18.9735 23.8333 13 23.8333C7.0265 23.8333 2.16667 18.9735 2.16667 13C2.16667 7.0265 7.0265 2.16667 13 2.16667ZM13 0C5.82075 0 0 5.82075 0 13C0 20.1793 5.82075 26 13 26C20.1793 26 26 20.1793 26 13C26 5.82075 20.1793 0 13 0ZM10.8333 10.8333H8.66667V13H10.8333V19.5H14.0833V13H16.055L16.25 10.8333H14.0833V9.93092C14.0833 9.41308 14.1873 9.20833 14.6878 9.20833H16.25V6.5H13.6457C11.6978 6.5 10.8333 7.358 10.8333 9.00033V10.8333Z" fill="white" fill-opacity="0.5"/>
</svg>
