<svg width="24" height="24" viewBox="0 0 24 24" fill="none" xmlns="http://www.w3.org/2000/svg">
<path d="M16.1684 7.70094C15.7224 7.26854 15.21 6.90438 14.6475 6.62598C14.9191 7.0387 15.1581 7.5163 15.3568 8.04894C15.6422 7.94662 15.9134 7.83022 16.1684 7.70094Z" fill="white"/>
<path d="M9.0083 11.5853H11.5849V9.40213C10.8149 9.36869 10.0704 9.26021 9.37679 9.08301C9.1691 9.84157 9.03902 10.691 9.0083 11.5853Z" fill="white"/>
<path d="M9.32623 14.7163C10.0352 14.5304 10.7978 14.4157 11.5848 14.3808V12.415H9.0083C9.03702 13.2313 9.14862 14.0098 9.32623 14.7163Z" fill="white"/>
<path d="M9.63281 8.29369C10.2447 8.44601 10.9024 8.54001 11.5847 8.57129V6.02441C11.4645 6.03273 11.3456 6.04457 11.2276 6.05993C10.5898 6.44665 10.0312 7.24481 9.63281 8.29369Z" fill="white"/>
<path d="M7.75366 16.2236C8.28855 16.7612 8.92457 17.1975 9.63018 17.5027C9.28841 17.0151 8.99505 16.4262 8.76288 15.7588C8.40064 15.8924 8.06247 16.0478 7.75366 16.2236Z" fill="white"/>
<path d="M9.62291 6.50098C8.98138 6.77946 8.39833 7.16698 7.896 7.6401C8.18504 7.79506 8.49769 7.93122 8.82849 8.0501C9.0477 7.46226 9.31602 6.94106 9.62291 6.50098Z" fill="white"/>
<path d="M8.57541 8.83826C8.12436 8.6781 7.70291 8.48659 7.31883 8.26562C6.58033 9.18938 6.10976 10.3349 6.02368 11.585H8.17684C8.20732 10.5963 8.34725 9.66882 8.57541 8.83826Z" fill="white"/>
<path d="M8.17725 12.415H6.02393C6.10529 13.5983 6.53018 14.6889 7.20163 15.5852C7.60124 15.3451 8.04573 15.1364 8.52502 14.9634C8.32749 14.1845 8.20589 13.3259 8.17725 12.415Z" fill="white"/>
<path d="M11.2428 17.9428C11.3558 17.9569 11.4698 17.9683 11.5847 17.9762V15.2119C10.8782 15.2451 10.196 15.3464 9.56372 15.5094C9.96821 16.6601 10.5605 17.5367 11.2428 17.9428Z" fill="white"/>
<path d="M15.6614 14.9598C16.0882 15.1144 16.4884 15.2968 16.8544 15.5068C17.4929 14.6254 17.8971 13.5645 17.9761 12.415H16.0085C15.9799 13.3244 15.8587 14.182 15.6614 14.9598Z" fill="white"/>
<path d="M14.6409 17.3771C15.2665 17.0685 15.83 16.6539 16.3095 16.1571C16.0344 16.0091 15.7371 15.8765 15.4219 15.7607C15.2092 16.3709 14.9457 16.9156 14.6409 17.3771Z" fill="white"/>
<path d="M11.9998 0C5.37251 0 0 5.37288 0 11.9998C0 18.6266 5.37251 24 11.9998 24C18.627 24 24 18.627 24 11.9998C24 5.37256 18.6271 0 11.9998 0ZM12 19.237C8.00952 19.237 4.76289 15.9906 4.76289 12C4.76289 8.00936 8.00952 4.76304 12 4.76304C15.9905 4.76304 19.2371 8.00936 19.2371 12C19.2371 15.9906 15.9905 19.237 12 19.237Z" fill="white"/>
<path d="M13.0175 6.09568C12.8196 6.06168 12.6186 6.0376 12.4148 6.02344V8.5784C13.1615 8.5564 13.883 8.45744 14.5517 8.29064C14.1659 7.27568 13.63 6.49512 13.0175 6.09568Z" fill="white"/>
<path d="M15.6099 8.83813C15.8383 9.66869 15.9782 10.5966 16.0087 11.5855H17.9761C17.8925 10.3673 17.4434 9.24877 16.7373 8.33789C16.3885 8.52813 16.0113 8.69581 15.6099 8.83813Z" fill="white"/>
<path d="M12.4148 17.9763C12.614 17.9627 12.8107 17.9391 13.0042 17.9066C13.6603 17.4856 14.2288 16.6264 14.6212 15.5107C13.9322 15.3329 13.1848 15.2273 12.4148 15.2041V17.9763Z" fill="white"/>
<path d="M14.8082 9.08105C14.0575 9.27321 13.2487 9.38609 12.4148 9.40929V11.5855H15.1776C15.1466 10.6906 15.0163 9.84025 14.8082 9.08105Z" fill="white"/>
<path d="M15.1773 12.415H12.4148V14.3739C13.2734 14.397 14.099 14.5117 14.8607 14.7105C15.0376 14.0057 15.1487 13.2292 15.1773 12.415Z" fill="white"/>
</svg>
