<svg width="24" height="24" viewBox="0 0 24 24" fill="none" xmlns="http://www.w3.org/2000/svg">
<path d="M12 5.99707C8.70466 5.99707 6.02368 8.67779 6.02368 11.9731C6.02368 15.2686 8.70466 17.9495 12 17.9495C15.2953 17.9495 17.9762 15.2686 17.9762 11.9731C17.9762 8.67803 15.2953 5.99707 12 5.99707ZM8.69818 15.2744L10.3942 11.2413L12.732 13.5784L8.69818 15.2744ZM13.6094 12.6954L11.277 10.3636L15.3013 8.67179L13.6094 12.6954Z" fill="white"/>
<path d="M11.9997 0C5.37252 0 0 5.37288 0 11.9998C0 18.6266 5.37252 24 11.9997 24C18.6268 24 24 18.627 24 11.9998C24 5.37256 18.6268 0 11.9997 0ZM11.9999 19.195C8.01821 19.195 4.77867 15.9555 4.77867 11.9737C4.77867 7.992 8.01797 4.75272 11.9999 4.75272C15.9819 4.75272 19.2212 7.992 19.2212 11.9737C19.2212 15.9554 15.9816 19.195 11.9999 19.195Z" fill="white"/>
</svg>
