<svg width="24" height="24" viewBox="0 0 24 24" fill="none" xmlns="http://www.w3.org/2000/svg">
<path d="M12 24C13.104 24 14.168 23.856 15.192 23.568C16.216 23.2799 17.172 22.876 18.06 22.356C18.948 21.836 19.756 21.212 20.484 20.484C21.212 19.7561 21.836 18.948 22.356 18.06C22.876 17.1719 23.28 16.216 23.568 15.192C23.856 14.168 24 13.104 24 12C24 10.896 23.856 9.832 23.568 8.808C23.28 7.784 22.876 6.828 22.356 5.94C21.836 5.052 21.212 4.244 20.484 3.516C19.756 2.788 18.948 2.164 18.06 1.644C17.172 1.124 16.216 0.72 15.192 0.432C14.168 0.144 13.104 0 12 0C10.352 0 8.796 0.316 7.332 0.948C5.868 1.58 4.596 2.436 3.516 3.516C2.436 4.596 1.58 5.868 0.948 7.332C0.316 8.796 0 10.352 0 12C0 13.104 0.143999 14.168 0.431999 15.192C0.720116 16.2159 1.124 17.1719 1.644 18.06C2.164 18.948 2.788 19.756 3.516 20.484C4.24392 21.212 5.052 21.8361 5.94 22.356C6.82808 22.876 7.784 23.28 8.80808 23.568C9.832 23.856 10.896 24 12 24ZM6.216 7.056H17.592C17.704 7.056 17.8 7.092 17.88 7.164C17.96 7.236 18 7.336 18 7.464V8.736C18 8.8 17.976 8.832 17.928 8.832L11.952 12.24L11.9039 12.264C11.872 12.264 11.8479 12.256 11.8319 12.24L6.04788 8.832C6.016 8.816 5.99188 8.808 5.97588 8.808C5.96 8.808 5.93588 8.8 5.90388 8.784C5.83988 8.784 5.80788 8.752 5.80788 8.688V7.464C5.80788 7.336 5.84792 7.236 5.928 7.164C6.00808 7.092 6.104 7.056 6.216 7.056ZM14.376 12.168C14.36 12.152 14.352 12.128 14.352 12.096C14.352 12.0479 14.368 12.024 14.4 12.024L17.832 10.056C17.88 10.04 17.92 10.04 17.952 10.056C17.984 10.056 18 10.08 18 10.128V15.288C18 15.3361 17.976 15.368 17.928 15.384H17.88C17.848 15.384 17.832 15.376 17.832 15.36L14.376 12.168ZM10.2 12.552C10.216 12.5039 10.2561 12.496 10.3201 12.528L11.6401 13.296C11.8001 13.392 11.968 13.392 12.1441 13.296L13.2961 12.6481C13.3441 12.6161 13.3841 12.6161 13.4161 12.6481L17.8081 16.7281C17.8241 16.744 17.8321 16.7761 17.8321 16.824C17.8321 16.84 17.8161 16.864 17.7841 16.896C17.6881 16.928 17.6241 16.9441 17.5921 16.9441H6.33608C6.30408 16.9441 6.27196 16.9281 6.24008 16.896C6.24008 16.832 6.24808 16.7921 6.26408 16.776L10.2 12.552ZM5.88 9.96H5.97588L9.23988 11.904C9.27176 11.904 9.28788 11.928 9.28788 11.976C9.30388 11.992 9.29588 12.016 9.264 12.0479L6 15.576C5.968 15.608 5.944 15.6241 5.928 15.6241H5.88C5.83188 15.576 5.80788 15.5441 5.80788 15.5281V10.056C5.808 10.024 5.832 9.992 5.88 9.96Z" fill="white"/>
</svg>
