<svg width="24" height="24" viewBox="0 0 24 24" fill="none" xmlns="http://www.w3.org/2000/svg">
<path d="M20.4823 3.51644C15.7936 -1.17215 8.19696 -1.17215 3.51329 3.51644C-0.99581 8.02547 -1.1654 15.2379 3.0095 19.9514L3.1342 20.0512C2.6803 21.0288 1.90218 22.2359 0.665173 22.8444C0.256162 23.0439 0.350933 23.6524 0.799848 23.7223C2.15158 23.9318 4.09189 23.6973 5.90251 22.3307L5.92745 22.3506C10.5263 25.054 16.5418 24.4355 20.4922 20.4851C25.1709 15.8015 25.1709 8.20005 20.4823 3.51644ZM15.9532 17.1333C15.6888 17.4027 15.4095 17.652 15.1601 17.9314C14.796 18.3404 14.3371 18.4701 13.8184 18.4401C13.0602 18.4002 12.3569 18.1458 11.6835 17.8166C10.1822 17.0884 8.90026 16.0759 7.82785 14.799C7.03477 13.8563 6.38135 12.8288 5.9474 11.6666C5.73791 11.103 5.58827 10.5294 5.63316 9.92086C5.66309 9.54677 5.80275 9.22754 6.07709 8.96319C6.37636 8.67888 6.65569 8.3846 6.94998 8.0953C7.33405 7.71622 7.81289 7.72121 8.19696 8.0953C8.43638 8.32973 8.66583 8.56416 8.90026 8.79859C9.12971 9.02803 9.35915 9.25248 9.58361 9.48193C9.98264 9.88594 9.98264 10.3548 9.58361 10.7588C9.2993 11.0481 9.01498 11.3374 8.7207 11.6167C8.64588 11.6915 8.6359 11.7514 8.6758 11.8462C8.86535 12.3051 9.14467 12.7141 9.45392 13.0931C10.0774 13.8613 10.7857 14.5446 11.6337 15.0733C11.8132 15.188 12.0127 15.2678 12.2023 15.3726C12.297 15.4275 12.3669 15.4075 12.4417 15.3277C12.726 15.0334 13.0203 14.7441 13.3096 14.4548C13.6937 14.0757 14.1725 14.0757 14.5516 14.4548C15.0205 14.9187 15.4843 15.3826 15.9482 15.8514C16.3473 16.2604 16.3473 16.7393 15.9532 17.1333ZM11.5289 9.38217L11.6785 8.31477C12.711 8.45941 13.6488 8.92827 14.387 9.66648C15.0903 10.3698 15.5492 11.2526 15.7138 12.2253L14.6514 12.4098C14.5217 11.6566 14.1675 10.9733 13.6238 10.4296C13.0502 9.85602 12.327 9.4919 11.5289 9.38217ZM17.4496 12.2253C17.2102 10.8286 16.5518 9.56173 15.5492 8.55418C14.4917 7.49676 13.15 6.82838 11.6686 6.61889L11.8182 5.55149C13.5291 5.79091 15.0853 6.56403 16.3074 7.79104C17.4695 8.95321 18.2327 10.4246 18.512 12.0407L17.4496 12.2253Z" fill="white"/>
</svg>
