<svg width="130" height="130" viewBox="0 0 130 130" fill="none" xmlns="http://www.w3.org/2000/svg">
<circle cx="65" cy="65" r="63.5" stroke="white" stroke-width="3"/>
<path d="M72.0862 51.0117H56.7277C55.5966 51.0117 54.6792 51.928 54.6792 53.0568C54.6792 54.1856 55.5966 55.1018 56.7277 55.1018H72.0862C73.2193 55.1018 74.1347 54.1856 74.1347 53.0568C74.1338 51.928 73.2183 51.0117 72.0862 51.0117Z" fill="white"/>
<path d="M74.1338 60.7257C74.1338 59.596 73.2183 58.6807 72.0853 58.6807H56.7277C55.5966 58.6807 54.6792 59.5969 54.6792 60.7257C54.6792 61.8555 55.5966 62.7717 56.7277 62.7717H72.0862C73.2183 62.7717 74.1338 61.8555 74.1338 60.7257Z" fill="white"/>
<path d="M64.4079 70.4417C65.5391 70.4417 66.4555 69.5254 66.4555 68.3966C66.4555 67.2668 65.5391 66.3506 64.4079 66.3506H56.7277C55.5966 66.3506 54.6792 67.2668 54.6792 68.3966C54.6792 69.5264 55.5966 70.4417 56.7277 70.4417H64.4079Z" fill="white"/>
<path d="M79.8662 77.4003L77.718 78.8164V83.908H51.0961V47.0911H77.718V55.1737L81.814 48.0878V45.0451C81.814 43.9153 80.8967 43 79.7655 43H49.0475C47.9164 43 47 43.9163 47 45.0451V85.9549C47 87.0847 47.9164 88 49.0475 88H79.7655C80.8976 88 81.815 87.0837 81.815 85.9549V74.6812L80.8363 76.3721C80.5976 76.7847 80.2621 77.1399 79.8662 77.4003Z" fill="white"/>
<path d="M91.9761 52.4728C91.9339 52.2889 91.5016 50.6364 88.8961 49.1333C86.2907 47.6311 84.6419 48.083 84.4598 48.1395C84.2153 48.217 84.0092 48.3817 83.8808 48.6038L71.0817 70.7453C71.0021 70.8841 70.9552 71.0382 70.9456 71.1972L70.4663 79.1869C70.4433 79.5737 70.6408 79.9394 70.9753 80.1338C71.3127 80.3272 71.7278 80.3138 72.0518 80.1022L78.7399 75.6923C78.8731 75.6061 78.9834 75.4883 79.0629 75.3514L91.863 53.2062C91.9914 52.984 92.0307 52.7236 91.9761 52.4728ZM74.6323 76.5626C74.292 76.2878 73.9057 76.0283 73.4906 75.788C73.0737 75.5477 72.6557 75.3457 72.2473 75.1868L72.3902 72.7913C72.9241 72.8612 73.7159 73.0775 74.7215 73.6558C75.7261 74.2351 76.3079 74.8134 76.6377 75.2394L74.6323 76.5626Z" fill="white"/>
<path d="M61.2771 79.8945C61.3442 80.3052 61.8187 80.4326 62.136 80.5647C62.4428 80.6939 62.8089 80.4488 63.0639 80.3253C64.6264 79.5661 66.743 80.4584 68.4167 80.4584C69.4069 80.4584 69.4069 78.9246 68.4167 78.9246C66.465 78.9246 64.8411 78.4315 62.9067 78.7504C62.9067 78.6383 62.8655 78.4871 62.7447 78.2812C62.3833 77.6637 61.9232 77.4885 61.4621 77.5632C61.4314 77.4904 61.4017 77.4176 61.3586 77.3439C61.2378 77.1467 61.0691 77.0481 60.8793 77.0069C61.419 76.0648 61.7669 75.0681 61.4132 74.262C61.3049 74.0169 60.9972 73.8914 60.7499 73.8819C59.7242 73.8436 58.8442 74.9187 58.1847 75.5641C56.535 77.1792 55.0817 79.0127 53.6755 80.8376C53.0716 81.6217 54.4069 82.3838 55.0012 81.6131C56.2474 79.9969 57.5674 78.4277 58.988 76.96C58.6458 77.521 58.2825 78.0715 57.9 78.602C57.3536 79.4455 58.6582 80.1635 59.2257 79.3765C59.3609 79.1707 59.5325 79.0223 59.7204 78.8949C59.683 78.9897 59.6446 79.0826 59.6063 79.1783C59.6082 79.1783 59.6101 79.1793 59.612 79.1803C59.5823 79.2415 59.5526 79.3028 59.5286 79.3612C59.1855 80.22 60.4671 80.6135 60.933 79.951C61.0509 79.7844 61.1602 79.6063 61.2589 79.4196C61.2522 79.5479 61.2493 79.7202 61.2771 79.8945Z" fill="white"/>
</svg>
