<svg width="130" height="130" viewBox="0 0 130 130" fill="none" xmlns="http://www.w3.org/2000/svg">
<circle cx="65" cy="65" r="63.5" stroke="white" stroke-width="3"/>
<path d="M72.7638 65.9959C73.3657 65.8186 74.7751 65.4025 75.4302 63.4382L76.78 59.3917L77.3229 59.5797C77.5714 59.666 77.8438 59.5292 77.9285 59.2758L78.6526 57.1048C78.7372 56.8515 78.6031 56.5739 78.3543 56.4877L60.8562 50.4223C60.6078 50.3361 60.3352 50.473 60.2507 50.7263L59.5265 52.8971C59.4421 53.1504 59.5764 53.4281 59.8247 53.5144L60.3676 53.7026L58.9937 57.8228C58.3449 59.7678 58.7741 60.4246 59.5882 61.4187L63.129 65.7412L62.7343 66.9245C61.3795 67.2243 57.8389 68.0107 57.3623 68.1511C56.7606 68.3285 55.3508 68.7442 54.6956 70.7087L53.5336 74.1929L52.9906 74.0047C52.7423 73.9186 52.4695 74.0553 52.3849 74.3086L51.6611 76.4795C51.5765 76.7329 51.7108 77.0105 51.9593 77.0969L69.4575 83.1624C69.7057 83.2485 69.9783 83.1117 70.0629 82.8582L70.7866 80.6877C70.8714 80.4343 70.7372 80.1565 70.4884 80.0702L69.9457 79.882L71.132 76.3242C71.7808 74.3793 71.3519 73.7222 70.5376 72.7286L66.997 68.4059L67.3914 67.2226C68.7463 66.923 72.2869 66.1367 72.7638 65.9959ZM65.3689 69.151L69.2193 73.851C69.5147 74.2116 69.6712 74.4085 69.7136 74.5888C69.7646 74.8053 69.6964 75.1886 69.5057 75.7601L68.3191 79.3181L55.1602 74.7568L56.322 71.2728C56.6888 70.1731 57.3539 69.9768 57.8394 69.8336C58.2191 69.7217 61.4761 68.9938 63.5727 68.5314C63.8673 68.4665 64.1073 68.2484 64.2043 67.9573L64.9108 65.8393C65.0071 65.55 64.949 65.2307 64.757 64.9962L60.9182 60.3102L60.9066 60.2958C60.6111 59.9352 60.4546 59.7383 60.4123 59.5579C60.3614 59.3414 60.4293 58.9584 60.6201 58.3866L61.9942 54.2665L75.1535 58.8278L73.8036 62.8744C73.4369 63.9743 72.7721 64.1703 72.2865 64.3136C71.9071 64.4255 68.6499 65.1537 66.5535 65.6157C66.2588 65.6808 66.0186 65.8987 65.9214 66.19L65.2152 68.3078C65.1187 68.5971 65.1772 68.9163 65.3689 69.151Z" fill="white"/>
<path d="M75.7648 85.8517C75.3807 86.0736 74.9846 86.2861 74.5883 86.483C74.5242 86.515 74.4623 86.5499 74.4025 86.5876C74.3389 86.6101 74.2756 86.6363 74.2128 86.6661C72.4926 87.4838 70.6988 88.0595 68.8509 88.3934C68.8273 88.3968 68.8036 88.3982 68.7797 88.4026C68.3441 88.4811 67.9007 88.5465 67.4622 88.5977C67.4575 88.5985 67.4526 88.5997 67.4479 88.6003C66.6426 88.6908 65.8283 88.737 65.0055 88.737C55.5181 88.737 47.4271 82.5311 44.4293 73.8929C44.3841 73.7611 44.3386 73.6296 44.2958 73.4976C43.5772 71.2946 43.1869 68.9403 43.1869 66.4945C43.1869 64.0436 43.5789 61.6841 44.3005 59.4771C44.3162 59.4289 44.3314 59.381 44.3474 59.3327C44.3905 59.2042 44.435 59.0762 44.4805 58.9485C44.5017 58.8886 44.523 58.8289 44.5448 58.7694C47.0359 51.934 52.7341 46.6756 59.7655 44.9019C59.7699 44.9009 59.7744 44.9005 59.7788 44.8995C59.8828 44.8732 59.9876 44.8476 60.0924 44.8229C60.1042 44.8203 60.1155 44.8159 60.1268 44.813C61.6608 44.4545 63.2558 44.2618 64.8926 44.2533L64.9115 46.5402C64.9172 47.2501 65.357 47.4552 65.888 46.9963L70.6266 42.9016C71.1575 42.4427 71.1519 41.6987 70.6127 41.2489L65.8076 37.2359C65.2688 36.7862 64.8328 36.9988 64.8387 37.7086L64.8576 39.991C57.968 40.0299 51.4965 42.7819 46.6205 47.7525C46.1401 48.2422 45.6817 48.748 45.2443 49.2681C45.2416 49.2711 45.2389 49.2735 45.2362 49.2767C45.22 49.2959 45.2048 49.3158 45.1888 49.335C41.3509 53.9261 39.1871 59.6484 39.0173 65.7189C39.0131 65.7661 39.0081 65.8129 39.007 65.8611C39.0024 66.0636 39 66.2695 39 66.473C39 66.8068 39.0067 67.1451 39.019 67.4787C39.0204 67.5178 39.0253 67.556 39.0291 67.5944C39.249 73.1254 41.125 78.3547 44.4165 82.686C44.4277 82.7009 44.4366 82.7168 44.4479 82.7317C44.7694 83.1547 45.1094 83.5738 45.4571 83.977C45.4795 84.003 45.504 84.0255 45.5271 84.0501C45.879 84.4547 46.2424 84.851 46.6206 85.2364C50.481 89.172 55.3416 91.7165 60.6178 92.6254C60.6339 92.6284 60.6501 92.6316 60.6661 92.6346C60.6781 92.6365 60.69 92.6373 60.7018 92.6391C62.1108 92.8769 63.5489 93 65.0055 93C68.8385 93 72.5306 92.1686 75.9796 90.5296C76.0539 90.4943 76.1245 90.4539 76.1925 90.4111C76.2698 90.384 76.3457 90.3518 76.4206 90.3145C76.8938 90.079 77.3665 89.826 77.8248 89.5615C78.8296 88.9814 79.1832 87.681 78.6143 86.6566C78.0452 85.6321 76.7694 85.2721 75.7648 85.8517Z" fill="white"/>
<path d="M83.1228 54.0893C83.5264 54.7016 84.187 55.032 84.8598 55.032C85.2608 55.032 85.6665 54.9147 86.0242 54.6695C86.9825 54.0129 87.2373 52.6888 86.5932 51.7117C86.2992 51.266 85.9885 50.8239 85.6683 50.398C84.9669 49.4629 83.6548 49.2851 82.7376 50.0001C81.8206 50.7154 81.6459 52.0532 82.3478 52.988C82.616 53.3456 82.8768 53.7162 83.1228 54.0893Z" fill="white"/>
<path d="M85.7781 59.6865C85.9125 60.1145 86.036 60.5533 86.1455 60.991C86.3866 61.9552 87.237 62.5965 88.1701 62.5965C88.3408 62.5965 88.5148 62.5749 88.6879 62.53C89.8068 62.2393 90.4828 61.0788 90.1976 59.9383C90.0675 59.4178 89.9204 58.8957 89.7602 58.3864C89.4084 57.2654 88.2314 56.6473 87.1319 57.0064C86.032 57.3656 85.426 58.5655 85.7781 59.6865Z" fill="white"/>
<path d="M84.4464 80.8423C83.5725 80.0725 82.2526 80.1702 81.4974 81.0605C81.2082 81.4015 80.9055 81.7374 80.5971 82.0589C79.79 82.901 79.8054 84.2503 80.6315 85.0732C81.0382 85.4784 81.5656 85.6802 82.0923 85.6802C82.6357 85.6802 83.1786 85.4655 83.588 85.0383C83.9553 84.655 84.3164 84.255 84.6604 83.8489C85.4153 82.9582 85.3196 81.6122 84.4464 80.8423Z" fill="white"/>
<path d="M88.9714 65.1104C87.8153 65.075 86.8533 66.0006 86.8192 67.1771C86.8061 67.6277 86.7789 68.0835 86.7384 68.5316C86.6328 69.7037 87.4795 70.7414 88.6294 70.849C88.6943 70.8551 88.7588 70.858 88.8229 70.858C89.8909 70.858 90.8031 70.0272 90.9024 68.9213C90.9506 68.3863 90.9832 67.8425 90.9988 67.3045C91.0328 66.1283 90.1256 65.1455 88.9714 65.1104Z" fill="white"/>
<path d="M88.0418 73.3759C86.966 72.9465 85.7534 73.4873 85.3324 74.5836C85.1714 75.0028 84.9955 75.4232 84.8094 75.8324C84.3241 76.9004 84.7799 78.1672 85.8276 78.662C86.1123 78.7965 86.411 78.8601 86.7053 78.8601C87.4947 78.8601 88.2499 78.4022 88.6036 77.6242C88.8249 77.137 89.0346 76.6371 89.2261 76.1377C89.6472 75.0417 89.1169 73.8051 88.0418 73.3759Z" fill="white"/>
<path d="M80.9216 48.1805C81.6089 47.2343 81.4137 45.8996 80.4856 45.1991C80.063 44.88 79.6249 44.5701 79.1835 44.2774C78.2154 43.6358 76.9204 43.9154 76.291 44.9023C75.6618 45.889 75.9359 47.2091 76.9038 47.8509C77.2747 48.0966 77.6424 48.3571 77.9975 48.6251C78.3715 48.9073 78.8076 49.0436 79.2401 49.0436C79.88 49.0436 80.5117 48.7451 80.9216 48.1805Z" fill="white"/>
</svg>
