<svg width="130" height="130" viewBox="0 0 130 130" fill="none" xmlns="http://www.w3.org/2000/svg">
<circle cx="65" cy="65" r="63.5" stroke="white" stroke-width="3"/>
<path d="M88.875 51.2764C87.5187 48.8902 86.0469 48.4513 83.05 48.2844C80.0563 48.0835 72.5281 48 66.0063 48C59.4719 48 51.9406 48.0835 48.95 48.2813C45.9594 48.4513 44.4844 48.8871 43.1156 51.2764C41.7187 53.6595 41 57.7642 41 64.9907C41 64.9969 41 65 41 65C41 65.0062 41 65.0093 41 65.0093V65.0155C41 72.2111 41.7187 76.3467 43.1156 78.7051C44.4844 81.0913 45.9562 81.524 48.9469 81.7249C51.9406 81.898 59.4719 82 66.0063 82C72.5281 82 80.0562 81.898 83.0531 81.728C86.05 81.5271 87.5219 81.0944 88.8781 78.7082C90.2875 76.3498 91 72.2142 91 65.0185C91 65.0185 91 65.0093 91 65.0031C91 65.0031 91 64.9969 91 64.9938C91 57.7642 90.2875 53.6595 88.875 51.2764ZM59.75 74.2727V55.7273L75.375 65L59.75 74.2727Z" fill="white"/>
</svg>
