<svg width="26" height="26" viewBox="0 0 26 26" fill="none" xmlns="http://www.w3.org/2000/svg">
<path d="M13 2.16667C18.9735 2.16667 23.8333 7.0265 23.8333 13C23.8333 18.9735 18.9735 23.8333 13 23.8333C7.0265 23.8333 2.16667 18.9735 2.16667 13C2.16667 7.0265 7.0265 2.16667 13 2.16667ZM13 0C5.82075 0 0 5.82075 0 13C0 20.1793 5.82075 26 13 26C20.1793 26 26 20.1793 26 13C26 5.82075 20.1793 0 13 0ZM13.6294 17.3301C13.9588 17.3301 14.0942 17.1091 14.0898 16.8339C14.0725 15.7961 14.4755 15.2371 15.2057 15.9651C16.0117 16.7711 16.1763 17.3301 17.1567 17.3301H18.8912C19.3278 17.3301 19.5 17.1893 19.5 16.9683C19.5 16.5002 18.7297 15.6748 18.0787 15.0703C17.1643 14.222 17.1232 14.2014 17.9097 13.1809C18.8847 11.9145 20.1619 10.2917 19.0331 10.2917H16.8762C16.4569 10.2917 16.4277 10.5268 16.2793 10.8788C15.7398 12.1496 14.716 13.7963 14.326 13.5449C13.9176 13.2817 14.105 12.2417 14.1364 10.6958C14.1451 10.2873 14.1429 10.0068 13.5178 9.86158C13.1777 9.7825 12.8451 9.75 12.5396 9.75C11.3078 9.75 10.4574 10.2668 10.9395 10.3567C11.7899 10.5148 11.7098 12.3565 11.5104 13.1517C11.1648 14.5362 9.86592 12.0553 9.32425 10.8203C9.19425 10.5224 9.15633 10.2917 8.68942 10.2917H6.92683C6.65925 10.2917 6.5 10.3783 6.5 10.5712C6.5 10.8973 8.10225 14.2112 9.633 15.8632C11.1269 17.4742 12.6035 17.3301 13.6294 17.3301Z" fill="white" fill-opacity="0.5"/>
</svg>
