<svg width="26" height="26" viewBox="0 0 26 26" fill="none" xmlns="http://www.w3.org/2000/svg">
<path d="M17.5825 7.69383C15.4137 7.5465 10.582 7.54758 8.41642 7.69383C6.071 7.85417 5.79583 9.27117 5.77742 13C5.79583 16.7223 6.06992 18.1458 8.4175 18.3062C10.5831 18.4524 15.4148 18.4535 17.5836 18.3062C19.929 18.1458 20.2052 16.7278 20.2237 13C20.2042 9.27767 19.9301 7.85417 17.5825 7.69383ZM10.8333 15.4072V10.5928L16.0095 12.9957L10.8333 15.4072ZM13 2.16667C18.9735 2.16667 23.8333 7.0265 23.8333 13C23.8333 18.9735 18.9735 23.8333 13 23.8333C7.0265 23.8333 2.16667 18.9735 2.16667 13C2.16667 7.0265 7.0265 2.16667 13 2.16667ZM13 0C5.82075 0 0 5.82075 0 13C0 20.1793 5.82075 26 13 26C20.1793 26 26 20.1793 26 13C26 5.82075 20.1793 0 13 0V0Z" fill="white" fill-opacity="0.5"/>
</svg>
